<svg width="20" height="20" viewBox="0 0 20 20" fill="none" xmlns="http://www.w3.org/2000/svg">
<g id="radix-icons:bell">
<path id="Vector" fill-rule="evenodd" clip-rule="evenodd" d="M11.4683 1.66666C11.4688 1.98629 11.3648 2.29733 11.1723 2.55245C10.9797 2.80758 10.7091 2.99282 10.4016 3.07999C11.9201 3.18179 13.3431 3.85678 14.3826 4.9683C15.422 6.07982 16.0003 7.54482 16.0003 9.06666V13.6667C16.0003 14.7413 16.0443 15.6093 16.9656 16.0707C17.0998 16.1379 17.2074 16.2485 17.2709 16.3845C17.3345 16.5205 17.3502 16.674 17.3157 16.8201C17.2811 16.9662 17.1983 17.0964 17.0805 17.1895C16.9628 17.2826 16.8171 17.3333 16.6669 17.3333H10.8816C11.0847 17.5125 11.2284 17.7492 11.2937 18.0121C11.3589 18.2749 11.3426 18.5514 11.2468 18.8047C11.1511 19.058 10.9804 19.2762 10.7576 19.4302C10.5348 19.5841 10.2704 19.6666 9.99961 19.6666C9.7288 19.6666 9.4644 19.5841 9.2416 19.4302C9.01881 19.2762 8.84818 19.058 8.75242 18.8047C8.65666 18.5514 8.64031 18.2749 8.70555 18.0121C8.77078 17.7492 8.91452 17.5125 9.11761 17.3333H3.33361C3.18349 17.3333 3.03777 17.2826 2.92004 17.1895C2.8023 17.0964 2.71945 16.9662 2.68489 16.8201C2.65034 16.674 2.6661 16.5205 2.72963 16.3845C2.79316 16.2485 2.90074 16.1379 3.03495 16.0707C3.95628 15.6093 4.00028 14.7413 4.00028 13.6667V9.06666C4.00028 7.5446 4.57873 6.07942 5.6185 4.96787C6.65826 3.85631 8.08161 3.18146 9.60028 3.07999C9.33801 3.00538 9.10173 2.85913 8.91798 2.65766C8.73423 2.45619 8.61028 2.20749 8.56005 1.93948C8.50982 1.67147 8.5353 1.39476 8.63363 1.14043C8.73195 0.886098 8.89923 0.664212 9.11668 0.499688C9.33413 0.335164 9.59314 0.234517 9.86463 0.209049C10.1361 0.183581 10.4093 0.2343 10.6536 0.355511C10.8978 0.476722 11.1035 0.663625 11.2474 0.895233C11.3913 1.12684 11.4678 1.39398 11.4683 1.66666ZM10.0003 4.39999C8.7626 4.39999 7.57562 4.89166 6.70045 5.76683C5.82528 6.642 5.33361 7.82898 5.33361 9.06666V13.7333C5.33361 14.328 5.33495 15.2107 4.93361 16H15.0669C14.6656 15.2107 14.6669 14.328 14.6669 13.7333V9.06666C14.6669 7.82898 14.1753 6.642 13.3001 5.76683C12.4249 4.89166 11.238 4.39999 10.0003 4.39999Z" fill="#464E5B"/>
</g>
</svg>
