<svg width="20" height="20" viewBox="0 0 20 20" fill="none" xmlns="http://www.w3.org/2000/svg">
<g id="solar:menu-dots-bold">
<path id="Vector" d="M5.83333 9.99998C5.83333 10.442 5.65774 10.8659 5.34518 11.1785C5.03262 11.4911 4.60869 11.6666 4.16667 11.6666C3.72464 11.6666 3.30072 11.4911 2.98816 11.1785C2.67559 10.8659 2.5 10.442 2.5 9.99998C2.5 9.55795 2.67559 9.13403 2.98816 8.82147C3.30072 8.50891 3.72464 8.33331 4.16667 8.33331C4.60869 8.33331 5.03262 8.50891 5.34518 8.82147C5.65774 9.13403 5.83333 9.55795 5.83333 9.99998ZM11.6667 9.99998C11.6667 10.442 11.4911 10.8659 11.1785 11.1785C10.866 11.4911 10.442 11.6666 10 11.6666C9.55797 11.6666 9.13405 11.4911 8.82149 11.1785C8.50893 10.8659 8.33333 10.442 8.33333 9.99998C8.33333 9.55795 8.50893 9.13403 8.82149 8.82147C9.13405 8.50891 9.55797 8.33331 10 8.33331C10.442 8.33331 10.866 8.50891 11.1785 8.82147C11.4911 9.13403 11.6667 9.55795 11.6667 9.99998ZM17.5 9.99998C17.5 10.442 17.3244 10.8659 17.0118 11.1785C16.6993 11.4911 16.2754 11.6666 15.8333 11.6666C15.3913 11.6666 14.9674 11.4911 14.6548 11.1785C14.3423 10.8659 14.1667 10.442 14.1667 9.99998C14.1667 9.55795 14.3423 9.13403 14.6548 8.82147C14.9674 8.50891 15.3913 8.33331 15.8333 8.33331C16.2754 8.33331 16.6993 8.50891 17.0118 8.82147C17.3244 9.13403 17.5 9.55795 17.5 9.99998Z" fill="#464E5B"/>
</g>
</svg>
