<svg width="60" height="60" viewBox="0 0 60 60" fill="none" xmlns="http://www.w3.org/2000/svg">
<g id="quill:paper">
<g id="Group">
<g id="Vector">
<path d="M18.75 16.875H26.25H18.75ZM18.75 30H41.25H18.75ZM18.75 37.5H41.25H18.75ZM18.75 45H26.25H18.75ZM15 54.375H45C45.9946 54.375 46.9484 53.9799 47.6516 53.2766C48.3549 52.5734 48.75 51.6196 48.75 50.625V9.375C48.75 8.38044 48.3549 7.42661 47.6516 6.72335C46.9484 6.02009 45.9946 5.625 45 5.625H15C14.0054 5.625 13.0516 6.02009 12.3483 6.72335C11.6451 7.42661 11.25 8.38044 11.25 9.375V50.625C11.25 51.6196 11.6451 52.5734 12.3483 53.2766C13.0516 53.9799 14.0054 54.375 15 54.375Z" fill="#DFF1FF"/>
<path d="M18.75 16.875H26.25M18.75 30H41.25M18.75 37.5H41.25M18.75 45H26.25M15 54.375H45C45.9946 54.375 46.9484 53.9799 47.6516 53.2766C48.3549 52.5734 48.75 51.6196 48.75 50.625V9.375C48.75 8.38044 48.3549 7.42661 47.6516 6.72335C46.9484 6.02009 45.9946 5.625 45 5.625H15C14.0054 5.625 13.0516 6.02009 12.3483 6.72335C11.6451 7.42661 11.25 8.38044 11.25 9.375V50.625C11.25 51.6196 11.6451 52.5734 12.3483 53.2766C13.0516 53.9799 14.0054 54.375 15 54.375Z" stroke="#139CFF" stroke-width="1.5" stroke-linecap="round" stroke-linejoin="round"/>
</g>
<path id="Vector_2" d="M41.25 17.8125C41.7678 17.8125 42.1875 17.3928 42.1875 16.875C42.1875 16.3572 41.7678 15.9375 41.25 15.9375C40.7322 15.9375 40.3125 16.3572 40.3125 16.875C40.3125 17.3928 40.7322 17.8125 41.25 17.8125Z" fill="#139CFF" stroke="#139CFF" stroke-width="0.75"/>
</g>
</g>
</svg>
