<svg width="16" height="16" viewBox="0 0 16 16" fill="none" xmlns="http://www.w3.org/2000/svg">
<g id="fluent-mdl2:pen-workspace" clip-path="url(#clip0_90_462)">
<path id="Vector" d="M13.6484 2.26562C13.7214 2.30729 13.7812 2.36719 13.8281 2.44531C13.875 2.52344 13.8984 2.60677 13.8984 2.69531C13.8984 2.73698 13.8932 2.77604 13.8828 2.8125C13.8724 2.84896 13.8594 2.88542 13.8438 2.92188L8.32031 13.9766C8.27344 14.0755 8.20052 14.1484 8.10156 14.1953L6.75 14.875C6.58333 14.9583 6.40365 15 6.21094 15H6.14062C6.11979 15 6.09375 14.9974 6.0625 14.9922L5.69531 15.7266C5.65365 15.8099 5.59375 15.875 5.51562 15.9219C5.4375 15.9688 5.34896 15.9948 5.25 16C5.11458 16 4.9974 15.9505 4.89844 15.8516C4.79948 15.7526 4.75 15.6354 4.75 15.5C4.75 15.4375 4.76823 15.3594 4.80469 15.2656C4.84115 15.1719 4.88281 15.0755 4.92969 14.9766C4.97656 14.8776 5.02865 14.7812 5.08594 14.6875C5.14323 14.5938 5.18229 14.5208 5.20312 14.4688C5.06771 14.2604 5 14.0339 5 13.7891V12.5C5 12.4167 5.01823 12.3411 5.05469 12.2734L9.55469 3.27344L9.04688 3.02344L7.19531 6.72656C7.15365 6.8099 7.09375 6.875 7.01562 6.92188C6.9375 6.96875 6.84896 6.99479 6.75 7C6.61458 7 6.4974 6.95052 6.39844 6.85156C6.29948 6.7526 6.25 6.63542 6.25 6.5C6.25 6.43229 6.26823 6.35677 6.30469 6.27344L8.17188 2.53906C8.25521 2.3724 8.36719 2.24219 8.50781 2.14844C8.64844 2.05469 8.8125 2.00521 9 2C9.18229 2 9.35417 2.04427 9.51562 2.13281C9.67708 2.22135 9.83854 2.30469 10 2.38281L10.5547 1.27344C10.5964 1.1849 10.6562 1.11719 10.7344 1.07031C10.8125 1.02344 10.901 1 11 1C11.0677 1 11.125 1.01042 11.1719 1.03125C11.2344 0.90625 11.2943 0.783854 11.3516 0.664062C11.4089 0.544271 11.4766 0.432292 11.5547 0.328125C11.6328 0.223958 11.7266 0.145833 11.8359 0.09375C11.9453 0.0416667 12.0833 0.0104167 12.25 0C12.4167 0 12.5755 0.0390625 12.7266 0.117188L13.4609 0.484375C13.6276 0.567708 13.7578 0.677083 13.8516 0.8125C13.9453 0.947917 13.9948 1.11458 14 1.3125C14 1.48958 13.9609 1.65365 13.8828 1.80469C13.8047 1.95573 13.7266 2.10938 13.6484 2.26562ZM12.0703 1.47656L12.75 1.8125L12.9766 1.35938L12.2969 1.02344L12.0703 1.47656ZM12.7266 2.92188L11.2266 2.17188L6 12.6172V13.7891C6 13.8464 6.02083 13.8958 6.0625 13.9375C6.10417 13.9792 6.15365 14 6.21094 14C6.23177 14 6.27344 13.987 6.33594 13.9609C6.39844 13.9349 6.47396 13.901 6.5625 13.8594C6.65104 13.8177 6.74219 13.7734 6.83594 13.7266C6.92969 13.6797 7.02344 13.6302 7.11719 13.5781C7.21094 13.526 7.28906 13.4844 7.35156 13.4531C7.41406 13.4219 7.46354 13.3958 7.5 13.375L12.7266 2.92188ZM14 6C14.276 6 14.5339 6.05208 14.7734 6.15625C15.013 6.26042 15.2266 6.40365 15.4141 6.58594C15.6016 6.76823 15.7448 6.97917 15.8438 7.21875C15.9427 7.45833 15.9948 7.71875 16 8C16 8.27604 15.9479 8.53385 15.8438 8.77344C15.7396 9.01302 15.5964 9.22656 15.4141 9.41406C15.2318 9.60156 15.0208 9.74479 14.7812 9.84375C14.5417 9.94271 14.2812 9.99479 14 10H11.75L12.25 9H14C14.1406 9 14.2708 8.97396 14.3906 8.92188C14.5104 8.86979 14.6146 8.79948 14.7031 8.71094C14.7917 8.6224 14.8646 8.51562 14.9219 8.39062C14.9792 8.26562 15.0052 8.13542 15 8C15 7.85938 14.974 7.72917 14.9219 7.60938C14.8698 7.48958 14.7995 7.38542 14.7109 7.29688C14.6224 7.20833 14.5156 7.13542 14.3906 7.07812C14.2656 7.02083 14.1354 6.99479 14 7C13.8646 7 13.7474 6.95052 13.6484 6.85156C13.5495 6.7526 13.5 6.63542 13.5 6.5C13.5 6.36458 13.5495 6.2474 13.6484 6.14844C13.7474 6.04948 13.8646 6 14 6ZM1 12.5C1 12.8438 1.0651 13.1667 1.19531 13.4688C1.32552 13.7708 1.5026 14.0365 1.72656 14.2656C1.95052 14.4948 2.21615 14.6745 2.52344 14.8047C2.83073 14.9349 3.15625 15 3.5 15H3.84375C3.81771 15.0781 3.79688 15.1589 3.78125 15.2422C3.76562 15.3255 3.75521 15.4115 3.75 15.5C3.75 15.5885 3.75781 15.6745 3.77344 15.7578C3.78906 15.8411 3.8125 15.9219 3.84375 16H3.5C3.01562 16 2.5625 15.9089 2.14062 15.7266C1.71875 15.5443 1.34896 15.2943 1.03125 14.9766C0.713542 14.6589 0.463542 14.2891 0.28125 13.8672C0.0989583 13.4453 0.00520833 12.9896 0 12.5C0 12.0156 0.0911458 11.5625 0.273438 11.1406C0.455729 10.7188 0.705729 10.349 1.02344 10.0312C1.34115 9.71354 1.71094 9.46354 2.13281 9.28125C2.55469 9.09896 3.01042 9.00521 3.5 9H5.25L4.75 10H3.5C3.15625 10 2.83333 10.0651 2.53125 10.1953C2.22917 10.3255 1.96354 10.5052 1.73438 10.7344C1.50521 10.9635 1.32552 11.2292 1.19531 11.5312C1.0651 11.8333 1 12.1562 1 12.5Z" fill="black"/>
</g>
<defs>
<clipPath id="clip0_90_462">
<rect width="16" height="16" fill="white"/>
</clipPath>
</defs>
</svg>
