<svg width="17" height="16" viewBox="0 0 17 16" fill="none" xmlns="http://www.w3.org/2000/svg">
<g id="iconoir:percentage-circle">
<g id="Group">
<path id="Vector" d="M8.49967 14.6668C12.1817 14.6668 15.1663 11.6822 15.1663 8.00016C15.1663 4.31816 12.1817 1.3335 8.49967 1.3335C4.81767 1.3335 1.83301 4.31816 1.83301 8.00016C1.83301 11.6822 4.81767 14.6668 8.49967 14.6668Z" stroke="black" stroke-width="1.5" stroke-linecap="round" stroke-linejoin="round"/>
<path id="Vector_2" d="M10.833 10.6668C10.9214 10.6668 11.0062 10.6317 11.0687 10.5692C11.1312 10.5067 11.1663 10.4219 11.1663 10.3335C11.1663 10.2451 11.1312 10.1603 11.0687 10.0978C11.0062 10.0353 10.9214 10.0002 10.833 10.0002C10.7446 10.0002 10.6598 10.0353 10.5973 10.0978C10.5348 10.1603 10.4997 10.2451 10.4997 10.3335C10.4997 10.4219 10.5348 10.5067 10.5973 10.5692C10.6598 10.6317 10.7446 10.6668 10.833 10.6668ZM6.16634 6.00016C6.25475 6.00016 6.33953 5.96504 6.40204 5.90253C6.46456 5.84002 6.49967 5.75523 6.49967 5.66683C6.49967 5.57842 6.46456 5.49364 6.40204 5.43113C6.33953 5.36861 6.25475 5.3335 6.16634 5.3335C6.07794 5.3335 5.99315 5.36861 5.93064 5.43113C5.86813 5.49364 5.83301 5.57842 5.83301 5.66683C5.83301 5.75523 5.86813 5.84002 5.93064 5.90253C5.99315 5.96504 6.07794 6.00016 6.16634 6.00016Z" fill="black" stroke="black" stroke-width="1.5" stroke-linecap="round" stroke-linejoin="round"/>
<path id="Vector_3" d="M11.1663 5.3335L5.83301 10.6668" stroke="black" stroke-width="1.5" stroke-linecap="round" stroke-linejoin="round"/>
</g>
</g>
</svg>
