<svg width="24" height="24" viewBox="0 0 24 24" fill="none" xmlns="http://www.w3.org/2000/svg">
<g id="Phone" clip-path="url(#clip0_7_170)">
<path id="icon" fill-rule="evenodd" clip-rule="evenodd" d="M19.9731 18.6594L17.0233 15.7095L15.0771 18.2868L14.37 18.0077L14.3655 18.0059L14.3567 18.0024L14.3265 17.9902C14.301 17.9798 14.2647 17.9648 14.2186 17.9455C14.1266 17.9068 13.9954 17.8505 13.8333 17.7774C13.5097 17.6316 13.0601 17.4181 12.5508 17.145C11.5464 16.6064 10.2501 15.8046 9.24115 14.7957C8.23222 13.7867 7.43038 12.4903 6.89172 11.4859C6.61859 10.9766 6.40503 10.527 6.25915 10.2033C6.18611 10.0412 6.12973 9.91002 6.09106 9.81797C6.07172 9.77192 6.05678 9.7356 6.04638 9.71004L6.03419 9.67987L6.03067 9.67105L6.02917 9.66726L5.74972 8.95943L8.327 7.01325L5.37722 4.06346C4.79231 5.01926 4.03982 6.64465 4.03501 8.66563C4.03002 10.7615 4.82797 13.4137 7.72553 16.3113C10.6231 19.2089 13.2753 20.0068 15.3711 20.0017C17.392 19.9968 19.0174 19.2443 19.9731 18.6594ZM8.19259 9.62092L9.53224 8.60931C10.5014 7.87746 10.6 6.45779 9.74122 5.59904L6.70511 2.56293C5.91556 1.77338 4.49054 1.73452 3.78698 2.8346C3.07488 3.94803 2.04131 6.01366 2.03501 8.66086C2.02862 11.3441 3.07856 14.4927 6.31132 17.7255C9.54409 20.9583 12.6927 22.0082 15.3759 22.0017C18.0231 21.9953 20.0887 20.9617 21.202 20.2495C22.3021 19.5459 22.2632 18.121 21.4736 17.3315L18.4375 14.2953C17.5787 13.4366 16.1591 13.5351 15.4272 14.5043L14.4156 15.844C14.1569 15.7228 13.8415 15.5677 13.496 15.3824C12.5596 14.8803 11.4615 14.1876 10.6554 13.3814C9.84923 12.5753 9.15646 11.4771 8.65426 10.5407C8.46891 10.1951 8.31382 9.87965 8.19259 9.62092Z" fill="#667085"/>
</g>
<defs>
<clipPath id="clip0_7_170">
<rect width="24" height="24" fill="white"/>
</clipPath>
</defs>
</svg>
