<svg width="24" height="24" viewBox="0 0 24 24" fill="none" xmlns="http://www.w3.org/2000/svg">
<g id="prime:search">
<path id="Vector" d="M10.7722 18.3C9.2829 18.3 7.82705 17.8584 6.58875 17.031C5.35044 16.2036 4.38531 15.0275 3.81538 13.6516C3.24545 12.2757 3.09633 10.7616 3.38688 9.30096C3.67742 7.84029 4.39459 6.49857 5.44768 5.44548C6.50077 4.39239 7.84248 3.67523 9.30316 3.38468C10.7638 3.09413 12.2779 3.24325 13.6538 3.81318C15.0297 4.38311 16.2057 5.34825 17.0332 6.58655C17.8606 7.82485 18.3022 9.2807 18.3022 10.77C18.3022 11.7588 18.1074 12.738 17.729 13.6516C17.3506 14.5652 16.7959 15.3953 16.0967 16.0945C15.3975 16.7937 14.5674 17.3484 13.6538 17.7268C12.7402 18.1052 11.761 18.3 10.7722 18.3ZM10.7722 4.74999C9.5855 4.74999 8.42546 5.10189 7.43877 5.76118C6.45207 6.42046 5.68304 7.35754 5.22891 8.45389C4.77479 9.55025 4.65597 10.7566 4.88748 11.9205C5.11899 13.0844 5.69044 14.1535 6.52955 14.9926C7.36867 15.8317 8.43776 16.4032 9.60165 16.6347C10.7655 16.8662 11.9719 16.7474 13.0683 16.2933C14.1646 15.8391 15.1017 15.0701 15.761 14.0834C16.4203 13.0967 16.7722 11.9367 16.7722 10.75C16.7722 9.15869 16.14 7.63257 15.0148 6.50735C13.8896 5.38213 12.3635 4.74999 10.7722 4.74999Z" fill="#5A5858"/>
<path id="Vector_2" d="M20.0019 20.75C19.9034 20.7504 19.8057 20.7312 19.7147 20.6934C19.6237 20.6557 19.5412 20.6001 19.4719 20.53L15.3419 16.4C15.2094 16.2578 15.1373 16.0697 15.1407 15.8754C15.1442 15.6811 15.2229 15.4958 15.3603 15.3583C15.4977 15.2209 15.6831 15.1422 15.8774 15.1388C16.0717 15.1354 16.2597 15.2075 16.4019 15.34L20.5319 19.47C20.6724 19.6106 20.7513 19.8012 20.7513 20C20.7513 20.1987 20.6724 20.3893 20.5319 20.53C20.4627 20.6001 20.3801 20.6557 20.2891 20.6934C20.1981 20.7312 20.1005 20.7504 20.0019 20.75Z" fill="#5A5858"/>
</g>
</svg>
