<svg width="16" height="16" viewBox="0 0 16 16" fill="none" xmlns="http://www.w3.org/2000/svg">
<g id="teenyicons:tick-circle-outline" clip-path="url(#clip0_118_416)">
<path id="Vector" d="M4.26654 7.99999L7.46654 10.6667L11.7332 5.33332M7.99987 15.4667C7.01933 15.4667 6.0484 15.2735 5.1425 14.8983C4.2366 14.5231 3.41348 13.9731 2.72014 13.2797C2.02679 12.5864 1.4768 11.7633 1.10157 10.8574C0.726334 9.95146 0.533203 8.98053 0.533203 7.99999C0.533203 7.01945 0.726334 6.04852 1.10157 5.14262C1.4768 4.23672 2.02679 3.41361 2.72014 2.72026C3.41348 2.02692 4.2366 1.47693 5.1425 1.10169C6.0484 0.726456 7.01933 0.533325 7.99987 0.533325C9.98015 0.533325 11.8793 1.31999 13.2796 2.72026C14.6799 4.12053 15.4665 6.01971 15.4665 7.99999C15.4665 9.98027 14.6799 11.8794 13.2796 13.2797C11.8793 14.68 9.98015 15.4667 7.99987 15.4667Z" stroke="#464E5B" stroke-width="1.06667"/>
</g>
<defs>
<clipPath id="clip0_118_416">
<rect width="16" height="16" fill="white"/>
</clipPath>
</defs>
</svg>
