<svg width="20" height="20" viewBox="0 0 20 20" fill="none" xmlns="http://www.w3.org/2000/svg">
<g id="fluent:content-view-20-regular">
<path id="Vector" d="M4.28571 6.57143C4.28571 6.26832 4.40612 5.97763 4.62045 5.76331C4.83478 5.54898 5.12547 5.42857 5.42857 5.42857H14.5714C14.8745 5.42857 15.1652 5.54898 15.3796 5.76331C15.5939 5.97763 15.7143 6.26832 15.7143 6.57143V8.85714C15.7143 9.16025 15.5939 9.45094 15.3796 9.66527C15.1652 9.87959 14.8745 10 14.5714 10H5.42857C5.12547 10 4.83478 9.87959 4.62045 9.66527C4.40612 9.45094 4.28571 9.16025 4.28571 8.85714V6.57143ZM14.5714 6.57143H5.42857V8.85714H14.5714V6.57143ZM12.2857 11.1429C11.9826 11.1429 11.6919 11.2633 11.4776 11.4776C11.2633 11.6919 11.1429 11.9826 11.1429 12.2857V13.4286C11.1429 13.7317 11.2633 14.0224 11.4776 14.2367C11.6919 14.451 11.9826 14.5714 12.2857 14.5714H14.5714C14.8745 14.5714 15.1652 14.451 15.3796 14.2367C15.5939 14.0224 15.7143 13.7317 15.7143 13.4286V12.2857C15.7143 11.9826 15.5939 11.6919 15.3796 11.4776C15.1652 11.2633 14.8745 11.1429 14.5714 11.1429H12.2857ZM12.2857 12.2857H14.5714V13.4286H12.2857V12.2857ZM4.28571 11.7143C4.28571 11.5627 4.34592 11.4174 4.45308 11.3102C4.56025 11.2031 4.70559 11.1429 4.85714 11.1429H9.42857C9.58012 11.1429 9.72547 11.2031 9.83263 11.3102C9.9398 11.4174 10 11.5627 10 11.7143C10 11.8658 9.9398 12.0112 9.83263 12.1183C9.72547 12.2255 9.58012 12.2857 9.42857 12.2857H4.85714C4.70559 12.2857 4.56025 12.2255 4.45308 12.1183C4.34592 12.0112 4.28571 11.8658 4.28571 11.7143ZM4.85714 13.4286C4.70559 13.4286 4.56025 13.4888 4.45308 13.5959C4.34592 13.7031 4.28571 13.8484 4.28571 14C4.28571 14.1516 4.34592 14.2969 4.45308 14.4041C4.56025 14.5112 4.70559 14.5714 4.85714 14.5714H9.42857C9.58012 14.5714 9.72547 14.5112 9.83263 14.4041C9.9398 14.2969 10 14.1516 10 14C10 13.8484 9.9398 13.7031 9.83263 13.5959C9.72547 13.4888 9.58012 13.4286 9.42857 13.4286H4.85714ZM2 5.42857C2 4.51926 2.36122 3.64719 3.00421 3.00421C3.64719 2.36122 4.51926 2 5.42857 2H14.5714C15.4807 2 16.3528 2.36122 16.9958 3.00421C17.6388 3.64719 18 4.51926 18 5.42857V14.5714C18 15.4807 17.6388 16.3528 16.9958 16.9958C16.3528 17.6388 15.4807 18 14.5714 18H5.42857C4.51926 18 3.64719 17.6388 3.00421 16.9958C2.36122 16.3528 2 15.4807 2 14.5714V5.42857ZM5.42857 3.14286C4.82236 3.14286 4.24098 3.38367 3.81233 3.81233C3.38367 4.24098 3.14286 4.82236 3.14286 5.42857V14.5714C3.14286 15.1776 3.38367 15.759 3.81233 16.1877C4.24098 16.6163 4.82236 16.8571 5.42857 16.8571H14.5714C15.1776 16.8571 15.759 16.6163 16.1877 16.1877C16.6163 15.759 16.8571 15.1776 16.8571 14.5714V5.42857C16.8571 4.82236 16.6163 4.24098 16.1877 3.81233C15.759 3.38367 15.1776 3.14286 14.5714 3.14286H5.42857Z" fill="#464E5B"/>
</g>
</svg>
